/* XPM */
static char * spearmint_xpm[] = {
"16 16 43 1",
" 	c None",
".	c #C9CBC9",
"+	c #D1D1D0",
"@	c #D1D3D0",
"#	c #C8C9C7",
"$	c #5C912C",
"%	c #5E962D",
"&	c #5F962E",
"*	c #67983E",
"=	c #6A8B50",
"-	c #BABBBB",
";	c #EDEDEB",
">	c #EEEEEC",
",	c #E2E2E1",
"'	c #4D9509",
")	c #6AC512",
"!	c #5CAF0C",
"~	c #4E9A06",
"{	c #638E3E",
"]	c #4C9509",
"^	c #6ECA14",
"/	c #73D216",
"(	c #62B80F",
"_	c #4C9409",
":	c #54A309",
"<	c #71CF15",
"[	c #68C111",
"}	c #52A008",
"|	c #59AB0B",
"1	c #6CC713",
"2	c #60982D",
"3	c #D0D1D0",
"4	c #64BC10",
"5	c #5F972D",
"6	c #56A60A",
"7	c #55A409",
"8	c #5E952D",
"9	c #C7C8C7",
"0	c #D7D7D6",
"a	c #4A8E0C",
"b	c #55A20C",
"c	c #5C902C",
"d	c #5F962D",
"   .+@@#$%%&*=  ",
" -;>>>>,')!~~~{ ",
" ;>>>>>,]^/(~~~=",
".>>>>>>,_:</[}~*",
"+>>>>>>,_~|///12",
"3>>>>>>,_~~4//}5",
"3>>>>>>,_~~6)7~8",
"9,,,,,,0a___b__c",
"c______a0,,,,,,9",
"8~~~~~~_,>>>>>>3",
"8~~~~~~_,>>>>>>3",
"&~~~~~~_,>>>>>>+",
"*~~~~~~_,>>>>>>.",
"=~~~~~~_,>>>>>; ",
" {~~~~~_,>>>>;- ",
"  =*&dd$#@@+.   "};
